<svg width="1080" height="260" viewBox="0 0 1080 260" fill="none" xmlns="http://www.w3.org/2000/svg" role="img" aria-label="Cep Kapında Telefon Tamiri">
  <defs>
    <linearGradient id="iconBg" x1="0" y1="0" x2="1" y2="1">
      <stop offset="0%" stop-color="#12B8A6"/>
      <stop offset="100%" stop-color="#5B8DEF"/>
    </linearGradient>
    <linearGradient id="iconInner" x1="0" y1="0" x2="1" y2="1">
      <stop offset="0%" stop-color="#07111F"/>
      <stop offset="100%" stop-color="#0F2847"/>
    </linearGradient>
    <linearGradient id="wordAccent" x1="0" y1="0" x2="1" y2="0">
      <stop offset="0%" stop-color="#12B8A6"/>
      <stop offset="100%" stop-color="#5B8DEF"/>
    </linearGradient>
  </defs>

  <g transform="translate(18 18)">
    <rect x="0" y="0" width="224" height="224" rx="64" fill="url(#iconBg)"/>
    <rect x="18" y="18" width="188" height="188" rx="52" fill="url(#iconInner)"/>
    <rect x="71" y="42" width="82" height="140" rx="22" fill="none" stroke="#E8F1FF" stroke-width="8"/>
    <rect x="84" y="58" width="56" height="94" rx="10" fill="#0F2847" opacity="0.92"/>
    <circle cx="112" cy="168" r="8" fill="#12B8A6"/>
    <circle cx="178" cy="88" r="8" fill="#5B8DEF"/>
    <circle cx="52" cy="138" r="8" fill="#8EEADF"/>
    <path d="M52 80C69 50 96 36 128 34" stroke="#35E5D4" stroke-width="9" stroke-linecap="round"/>
    <path d="M155 34C178 30 195 35 208 48" stroke="#5B8DEF" stroke-width="9" stroke-linecap="round"/>
    <path d="M167 51C175 60 180 71 184 83" stroke="#8EEADF" stroke-width="8" stroke-linecap="round"/>
  </g>

  <g transform="translate(282 43)">
    <text x="0" y="74" fill="#12B8A6" font-size="84" font-style="italic" font-weight="800" font-family="Arial, Helvetica, sans-serif">Cep</text>
    <text x="194" y="74" fill="#0F2847" font-size="84" font-style="italic" font-weight="800" font-family="Arial, Helvetica, sans-serif">Kapında</text>
    <text x="4" y="122" fill="#5B8DEF" font-size="30" font-style="italic" font-weight="700" font-family="Arial, Helvetica, sans-serif">Telefon Tamiri</text>
    <rect x="4" y="136" width="248" height="4" rx="2" fill="url(#wordAccent)" opacity="0.95"/>
  </g>
</svg>
