<svg width="1400" height="420" viewBox="0 0 1400 420" fill="none" xmlns="http://www.w3.org/2000/svg" role="img" aria-label="Cep Kapında Telefon Tamiri">
  <rect width="1400" height="420" fill="#FFFFFF"/>

  <g transform="translate(0,20)">
    <path d="M1070 70C1070 36.8629 1096.86 10 1130 10H1210" stroke="#0F2847" stroke-width="18" stroke-linecap="round"/>
    <path d="M1230 28L1374 4L1318 116L1310 78L1230 28Z" fill="#12B8A6"/>
    <circle cx="1228" cy="84" r="14" fill="#12B8A6"/>
    <circle cx="1188" cy="110" r="12" fill="#12B8A6"/>
    <circle cx="1158" cy="142" r="9" fill="#12B8A6"/>

    <rect x="1152" y="154" width="138" height="92" rx="8" stroke="#0F2847" stroke-width="7"/>
    <rect x="1242" y="168" width="54" height="118" rx="8" stroke="#0F2847" stroke-width="7"/>
    <rect x="1166" y="244" width="96" height="8" rx="4" fill="#0F2847"/>
    <rect x="1246" y="172" width="42" height="10" rx="5" fill="#0F2847"/>
    <rect x="1260" y="276" width="16" height="6" rx="3" fill="#0F2847"/>

    <path d="M1076 86C1064 58 1064 28 1072 18C1090 0 1122 0 1148 0" stroke="#0F2847" stroke-width="16" stroke-linecap="round"/>
  </g>

  <g transform="translate(0,0)">
    <text x="0" y="266" font-family="Arial, Helvetica, sans-serif" font-size="250" font-style="italic" font-weight="800" letter-spacing="-10">
      <tspan fill="#12B8A6">Cep</tspan>
      <tspan fill="#0F2847">Kapında</tspan>
    </text>

    <path d="M310 338H458" stroke="#12B8A6" stroke-width="9" stroke-linecap="round"/>
    <path d="M1030 338H1178" stroke="#12B8A6" stroke-width="9" stroke-linecap="round"/>

    <text x="502" y="382" font-family="Arial, Helvetica, sans-serif" font-size="64" font-style="italic" font-weight="800" fill="#0F2847" letter-spacing="-2">
      Telefon Tamiri
    </text>
  </g>
</svg>
