<svg width="1200" height="800" viewBox="0 0 1200 800" fill="none" xmlns="http://www.w3.org/2000/svg">
  <defs>
    <linearGradient id="bg" x1="0" y1="0" x2="1200" y2="800" gradientUnits="userSpaceOnUse">
      <stop stop-color="#07111F"/>
      <stop offset="1" stop-color="#0F2847"/>
    </linearGradient>
    <linearGradient id="phone" x1="390" y1="120" x2="810" y2="680" gradientUnits="userSpaceOnUse">
      <stop stop-color="#12B8A6"/>
      <stop offset="1" stop-color="#5B8DEF"/>
    </linearGradient>
  </defs>
  <rect width="1200" height="800" rx="48" fill="url(#bg)"/>
  <circle cx="980" cy="150" r="150" fill="#12B8A6" fill-opacity="0.12"/>
  <circle cx="210" cy="660" r="180" fill="#5B8DEF" fill-opacity="0.12"/>
  <rect x="395" y="110" width="410" height="580" rx="48" fill="url(#phone)"/>
  <rect x="426" y="150" width="348" height="500" rx="30" fill="#F5F7FB"/>
  <rect x="548" y="128" width="104" height="18" rx="9" fill="#07111F" fill-opacity="0.22"/>
  <rect x="470" y="210" width="260" height="220" rx="28" fill="#12B8A6" fill-opacity="0.18"/>
  <path d="M470 352C520 300 565 278 610 278C658 278 703 302 730 336" stroke="#12B8A6" stroke-width="10" stroke-linecap="round"/>
  <path d="M498 330C540 294 584 276 624 276C664 276 702 290 738 322" stroke="#5B8DEF" stroke-width="8" stroke-linecap="round" opacity="0.8"/>
  <rect x="468" y="468" width="264" height="96" rx="24" fill="#07111F" fill-opacity="0.08"/>
  <circle cx="520" cy="516" r="16" fill="#12B8A6"/>
  <circle cx="580" cy="516" r="16" fill="#FFB703"/>
  <circle cx="640" cy="516" r="16" fill="#FF6B6B"/>
  <text x="600" y="708" text-anchor="middle" fill="#FFFFFF" font-family="Arial, sans-serif" font-size="40" font-weight="700" letter-spacing="4">SCREEN</text>
</svg>
