<svg width="1200" height="800" viewBox="0 0 1200 800" fill="none" xmlns="http://www.w3.org/2000/svg">
  <defs>
    <linearGradient id="bg" x1="1200" y1="0" x2="0" y2="800" gradientUnits="userSpaceOnUse">
      <stop stop-color="#0A1B33"/>
      <stop offset="1" stop-color="#07111F"/>
    </linearGradient>
    <linearGradient id="bat" x1="390" y1="150" x2="810" y2="650" gradientUnits="userSpaceOnUse">
      <stop stop-color="#FFB703"/>
      <stop offset="1" stop-color="#FF6B6B"/>
    </linearGradient>
  </defs>
  <rect width="1200" height="800" rx="48" fill="url(#bg)"/>
  <circle cx="210" cy="160" r="140" fill="#FFB703" fill-opacity="0.12"/>
  <circle cx="940" cy="650" r="180" fill="#FF6B6B" fill-opacity="0.10"/>
  <rect x="410" y="130" width="380" height="540" rx="42" fill="url(#bat)"/>
  <rect x="438" y="162" width="324" height="476" rx="30" fill="#0F172A"/>
  <rect x="540" y="136" width="120" height="14" rx="7" fill="#FFFFFF" fill-opacity="0.25"/>
  <rect x="525" y="250" width="150" height="220" rx="28" fill="#FFB703" fill-opacity="0.18"/>
  <path d="M616 276V356H672L594 490V408H540L616 276Z" fill="#FFB703"/>
  <rect x="465" y="515" width="270" height="72" rx="18" fill="#FFFFFF" fill-opacity="0.08"/>
  <rect x="488" y="536" width="196" height="28" rx="14" fill="#12B8A6"/>
  <text x="600" y="708" text-anchor="middle" fill="#FFFFFF" font-family="Arial, sans-serif" font-size="40" font-weight="700" letter-spacing="4">BATTERY</text>
</svg>
