<svg width="1200" height="800" viewBox="0 0 1200 800" fill="none" xmlns="http://www.w3.org/2000/svg">
  <defs>
    <linearGradient id="bg" x1="1200" y1="0" x2="0" y2="800" gradientUnits="userSpaceOnUse">
      <stop stop-color="#07111F"/>
      <stop offset="1" stop-color="#0F2847"/>
    </linearGradient>
  </defs>
  <rect width="1200" height="800" rx="48" fill="url(#bg)"/>
  <circle cx="220" cy="160" r="150" fill="#FFB703" fill-opacity="0.12"/>
  <circle cx="990" cy="660" r="170" fill="#12B8A6" fill-opacity="0.12"/>
  <rect x="410" y="118" width="380" height="564" rx="48" fill="#FFFFFF"/>
  <rect x="438" y="154" width="324" height="486" rx="30" fill="#0F172A"/>
  <rect x="550" y="132" width="100" height="16" rx="8" fill="#0F172A" fill-opacity="0.18"/>
  <circle cx="600" cy="396" r="110" fill="#12B8A6" fill-opacity="0.18"/>
  <circle cx="600" cy="396" r="66" fill="#5B8DEF" fill-opacity="0.18"/>
  <circle cx="600" cy="396" r="34" fill="#FFB703"/>
  <circle cx="600" cy="396" r="14" fill="#FFFFFF" fill-opacity="0.55"/>
  <path d="M286 308C328 278 372 262 424 262" stroke="#5B8DEF" stroke-width="8" stroke-linecap="round" opacity="0.8"/>
  <path d="M308 360C354 322 406 302 470 302" stroke="#12B8A6" stroke-width="10" stroke-linecap="round" opacity="0.7"/>
  <text x="600" y="708" text-anchor="middle" fill="#FFFFFF" font-family="Arial, sans-serif" font-size="40" font-weight="700" letter-spacing="4">CAMERA</text>
</svg>
