<svg width="1200" height="800" viewBox="0 0 1200 800" fill="none" xmlns="http://www.w3.org/2000/svg">
  <defs>
    <linearGradient id="bg" x1="1200" y1="0" x2="0" y2="800" gradientUnits="userSpaceOnUse">
      <stop stop-color="#0A1B33"/>
      <stop offset="1" stop-color="#07111F"/>
    </linearGradient>
  </defs>
  <rect width="1200" height="800" rx="48" fill="url(#bg)"/>
  <circle cx="960" cy="160" r="150" fill="#12B8A6" fill-opacity="0.10"/>
  <circle cx="180" cy="630" r="190" fill="#FFB703" fill-opacity="0.10"/>
  <rect x="416" y="120" width="368" height="560" rx="48" fill="#E8EEF8"/>
  <rect x="446" y="160" width="308" height="480" rx="30" fill="#0F172A"/>
  <rect x="560" y="134" width="80" height="16" rx="8" fill="#0F172A" fill-opacity="0.18"/>
  <rect x="520" y="556" width="160" height="32" rx="16" fill="#12B8A6"/>
  <rect x="566" y="540" width="68" height="60" rx="20" fill="#5B8DEF"/>
  <path d="M150 500H350" stroke="#FFB703" stroke-width="18" stroke-linecap="round"/>
  <rect x="108" y="470" width="40" height="60" rx="8" fill="#FFB703"/>
  <rect x="104" y="483" width="24" height="34" rx="5" fill="#FFB703"/>
  <path d="M290 500C326 500 352 500 382 500" stroke="#FF6B6B" stroke-width="8" stroke-linecap="round" opacity="0.8"/>
  <text x="600" y="708" text-anchor="middle" fill="#FFFFFF" font-family="Arial, sans-serif" font-size="40" font-weight="700" letter-spacing="4">SOCKET</text>
</svg>
