<svg width="1200" height="800" viewBox="0 0 1200 800" fill="none" xmlns="http://www.w3.org/2000/svg">
  <defs>
    <linearGradient id="bg" x1="0" y1="800" x2="1200" y2="0" gradientUnits="userSpaceOnUse">
      <stop stop-color="#07111F"/>
      <stop offset="1" stop-color="#123B67"/>
    </linearGradient>
  </defs>
  <rect width="1200" height="800" rx="48" fill="url(#bg)"/>
  <circle cx="950" cy="160" r="180" fill="#12B8A6" fill-opacity="0.12"/>
  <circle cx="240" cy="620" r="140" fill="#5B8DEF" fill-opacity="0.16"/>
  <rect x="400" y="115" width="400" height="570" rx="46" fill="#E8EEF8"/>
  <rect x="430" y="155" width="340" height="492" rx="30" fill="#0F172A"/>
  <rect x="550" y="132" width="100" height="16" rx="8" fill="#0F172A" fill-opacity="0.18"/>
  <path d="M600 242L522 414H584L556 552L682 360H618L650 242H600Z" fill="#12B8A6"/>
  <path d="M292 500H470" stroke="#FFB703" stroke-width="20" stroke-linecap="round"/>
  <rect x="248" y="474" width="40" height="52" rx="8" fill="#FFB703"/>
  <rect x="218" y="486" width="28" height="28" rx="6" fill="#FFB703"/>
  <path d="M290 500C338 500 370 500 400 500" stroke="#FF6B6B" stroke-width="8" stroke-linecap="round" opacity="0.7"/>
  <text x="600" y="708" text-anchor="middle" fill="#FFFFFF" font-family="Arial, sans-serif" font-size="40" font-weight="700" letter-spacing="4">CHARGE</text>
</svg>
