<svg width="1200" height="800" viewBox="0 0 1200 800" fill="none" xmlns="http://www.w3.org/2000/svg">
  <defs>
    <linearGradient id="bg" x1="0" y1="0" x2="1200" y2="800" gradientUnits="userSpaceOnUse">
      <stop stop-color="#08101D"/>
      <stop offset="1" stop-color="#0F2847"/>
    </linearGradient>
  </defs>
  <rect width="1200" height="800" rx="48" fill="url(#bg)"/>
  <circle cx="220" cy="170" r="160" fill="#5B8DEF" fill-opacity="0.12"/>
  <circle cx="1000" cy="650" r="190" fill="#12B8A6" fill-opacity="0.10"/>
  <rect x="430" y="120" width="340" height="560" rx="48" fill="#DDE7F6"/>
  <rect x="458" y="158" width="284" height="480" rx="32" fill="#0F172A"/>
  <rect x="560" y="134" width="80" height="16" rx="8" fill="#0F172A" fill-opacity="0.18"/>
  <path d="M506 290C548 240 648 240 690 290C731 339 723 422 690 467C651 520 545 520 506 467C473 422 465 339 506 290Z" fill="#12B8A6" fill-opacity="0.24"/>
  <path d="M598 268C548 329 528 360 528 401C528 462 571 507 624 507C677 507 720 462 720 401C720 360 700 329 650 268L624 236L598 268Z" fill="#5B8DEF"/>
  <circle cx="624" cy="403" r="22" fill="#FFFFFF" fill-opacity="0.22"/>
  <path d="M304 266C334 236 372 224 414 224" stroke="#12B8A6" stroke-width="10" stroke-linecap="round" opacity="0.7"/>
  <path d="M286 310C326 266 370 244 432 244" stroke="#5B8DEF" stroke-width="8" stroke-linecap="round" opacity="0.7"/>
  <text x="600" y="708" text-anchor="middle" fill="#FFFFFF" font-family="Arial, sans-serif" font-size="40" font-weight="700" letter-spacing="4">WATER</text>
</svg>
